<svg width="64" height="64" viewBox="0 0 64 64" fill="none" xmlns="http://www.w3.org/2000/svg">
<path d="M2.97836 16.6948C-0.80935 12.9071 -0.809359 6.76597 2.97835 2.97826C6.76606 -0.809446 12.9072 -0.809446 16.6949 2.97826L61.1592 47.4426C64.9469 51.2303 64.947 57.3714 61.1592 61.1592C57.3715 64.9469 51.2304 64.9469 47.4427 61.1592L2.97836 16.6948Z" fill="#203AF4"/>
<path d="M46.4454 17.417C46.4454 27.0362 54.2433 34.8341 63.8625 34.8341V0C54.2433 0 46.4454 7.79787 46.4454 17.417Z" fill="#0C064C"/>
<path d="M17.417 46.4454C17.417 36.8263 9.61915 29.0284 -1.2582e-05 29.0284L-9.53674e-06 63.8625C9.61915 63.8625 17.417 56.0646 17.417 46.4454Z" fill="#0C064C"/>
</svg>
